<?xml version="1.0" encoding="utf-8"?>
<!-- Uploaded to: SVG Repo, www.svgrepo.com, Generator: SVG Repo Mixer Tools -->
<svg fill="#CDAA7D" width="800px" height="800px" viewBox="0 0 32 32" version="1.1" xmlns="http://www.w3.org/2000/svg">
<title>trefoil-lily</title>
<path d="M27.059 10.285c-0.653-0.312-1.366-0.434-2.102-0.384 0.946-0.3 1.88-0.557 2.781-0.751 1.073-1.041 2.577-2.783 3.084-4.155-1.564-0.27-3.79 0.331-5.14 0.593-0.608 0.695-1.285 1.378-2.002 2.045 0.402-0.606 0.646-1.275 0.702-1.987 0.196-2.49-2.895-4.385-5.158-3.169 1.452 0.238 2.312 1.332 2.322 2.855 0.017 2.472-1.667 3.844-5.457 5.473l-0 0c2.032 0.017 3.852-0.417 5.266-1.164-1.61 1.305-3.272 2.508-4.731 3.551 1.645-0.717 3.521-1.536 5.443-2.272-1.347 0.852-2.625 2.207-3.622 3.967l0 0c3.305-2.468 5.336-3.24 7.468-1.989 1.314 0.771 1.831 2.062 1.311 3.439 2.184-1.352 2.089-4.976-0.165-6.052zM13.728 14.887l0-0c-0.997-1.76-2.274-3.114-3.622-3.967 1.922 0.737 3.798 1.555 5.443 2.272-1.46-1.043-3.121-2.246-4.731-3.551 1.415 0.747 3.234 1.18 5.266 1.164l-0-0c-3.79-1.628-5.474-3.001-5.457-5.473 0.011-1.523 0.87-2.617 2.322-2.855-2.263-1.216-5.354 0.679-5.158 3.169 0.056 0.712 0.3 1.381 0.702 1.987-0.717-0.667-1.394-1.351-2.002-2.045-1.35-0.262-3.576-0.863-5.14-0.593 0.506 1.371 2.011 3.114 3.084 4.155 0.901 0.194 1.835 0.451 2.781 0.751-0.736-0.050-1.449 0.072-2.102 0.384-2.254 1.076-2.35 4.7-0.165 6.052-0.52-1.377-0.003-2.668 1.311-3.439 2.132-1.251 4.163-0.479 7.468 1.989zM20.452 22.379c-2.149-1.221-2.496-3.366-2.011-7.462l-0-0c-1.026 1.743-1.56 3.527-1.625 5.12-0.323-2.033-0.552-4.067-0.754-5.85-0.174 1.786-0.384 3.826-0.709 5.873-0.060-1.599-0.595-3.391-1.625-5.143l-0 0c0.485 4.096 0.138 6.241-2.011 7.462-1.324 0.752-2.701 0.555-3.633-0.584 0.078 2.568 3.265 4.297 5.323 2.883 0.588-0.404 1.046-0.951 1.37-1.602-0.219 0.954-0.473 1.882-0.77 2.757 0.448 1.3 1.041 3.529 2.056 4.748 0.935-1.124 1.691-3.299 2.056-4.748-0.283-0.877-0.527-1.815-0.74-2.784 0.325 0.663 0.787 1.219 1.383 1.629 2.058 1.414 5.245-0.315 5.323-2.883-0.932 1.139-2.309 1.336-3.633 0.584z"></path>
</svg>